<svg xmlns="http://www.w3.org/2000/svg" xmlns:xlink="http://www.w3.org/1999/xlink" viewBox="0 0 108.11 108.11"><defs><style>.cls-1{fill:url(#linear-gradient);}.cls-2{fill:url(#linear-gradient-2);}.cls-3{fill:url(#linear-gradient-3);}.cls-4{fill:url(#linear-gradient-4);}.cls-5{fill:url(#linear-gradient-5);}.cls-6{fill:url(#linear-gradient-6);}.cls-7{fill:url(#linear-gradient-7);}.cls-8{fill:url(#linear-gradient-8);}.cls-9{fill:url(#linear-gradient-9);}.cls-10{fill:none;clip-rule:evenodd;}.cls-11{clip-path:url(#clip-path);}.cls-12{fill:url(#linear-gradient-10);}.cls-13{clip-path:url(#clip-path-2);}.cls-14{fill:url(#linear-gradient-11);}.cls-15{clip-path:url(#clip-path-3);}.cls-16{fill:url(#linear-gradient-12);}.cls-17{mask:url(#mask);}.cls-18{fill:#f9d92e;}.cls-18,.cls-22,.cls-24,.cls-26,.cls-28,.cls-30,.cls-32,.cls-36{fill-rule:evenodd;}.cls-19{clip-path:url(#clip-path-4);}.cls-20{fill:url(#linear-gradient-13);}.cls-21{mask:url(#mask-2);}.cls-22{fill:#fef163;}.cls-23{mask:url(#mask-3);}.cls-24{fill:#f98afe;}.cls-25{mask:url(#mask-4);}.cls-26{fill:#300c50;}.cls-27{mask:url(#mask-5);}.cls-28{fill:#005b50;}.cls-29{mask:url(#mask-6);}.cls-30{fill:#fef7a2;}.cls-31{mask:url(#mask-7);}.cls-32{fill:#f6dcfd;}.cls-33{clip-path:url(#clip-path-5);}.cls-34{fill:url(#linear-gradient-14);}.cls-35{mask:url(#mask-9);}.cls-36{fill:#01052d;}</style><linearGradient id="linear-gradient" x1="-172.69" y1="-51.18" x2="-172.69" y2="258.84" gradientTransform="translate(226.75 -153.69)" gradientUnits="userSpaceOnUse"><stop offset="0" stop-color="#fff"/><stop offset="1"/></linearGradient><linearGradient id="linear-gradient-2" x1="-199.76" y1="239.02" x2="-199.76" y2="266.74" gradientTransform="translate(280.88 -240.53)" xlink:href="#linear-gradient"/><linearGradient id="linear-gradient-3" x1="-199.76" y1="261.8" x2="-199.76" y2="234.99" gradientTransform="translate(280.88 -153.69)" xlink:href="#linear-gradient"/><linearGradient id="linear-gradient-4" x1="-309.64" y1="347.9" x2="-178.41" y2="187.61" gradientTransform="translate(239.76 -153.69)" xlink:href="#linear-gradient"/><linearGradient id="linear-gradient-5" x1="-297.07" y1="310.87" x2="-166.96" y2="235.75" gradientTransform="translate(280.92 -230.65)" xlink:href="#linear-gradient"/><linearGradient id="linear-gradient-6" x1="-86.16" y1="51.23" x2="-227.96" y2="292.33" gradientTransform="translate(238.6 -155.07)" xlink:href="#linear-gradient"/><linearGradient id="linear-gradient-7" x1="-42.04" y1="300.28" x2="-225.2" y2="198.76" gradientTransform="translate(251.56 -153.69)" xlink:href="#linear-gradient"/><linearGradient id="linear-gradient-8" x1="-172.69" y1="466.69" x2="-172.69" y2="156.65" xlink:href="#linear-gradient"/><linearGradient id="linear-gradient-9" x1="-325.59" y1="186.4" x2="-171.77" y2="275.21" gradientTransform="translate(280.92 -174.97)" xlink:href="#linear-gradient"/><clipPath id="clip-path"><path class="cls-10" d="M74.42,73.38a28,28,0,0,1-20.25,8.75h28A25.87,25.87,0,0,1,97,86.83a53.82,53.82,0,0,0,8.65-16.74,26,26,0,0,0-31.27,3.29Z"/></clipPath><linearGradient id="linear-gradient-10" x1="104.23" y1="53.2" x2="69.44" y2="85.13" gradientUnits="userSpaceOnUse"><stop offset="0" stop-color="#c835f8"/><stop offset="1" stop-color="#0276db"/></linearGradient><clipPath id="clip-path-2"><path class="cls-10" d="M74,34.25a26,26,0,0,0,31.76,3.83A54,54,0,0,0,97,21.28,25.87,25.87,0,0,1,82.13,26h-28A28,28,0,0,1,74,34.25Z"/></clipPath><linearGradient id="linear-gradient-11" x1="103.17" y1="55.78" x2="67.72" y2="20.55" gradientUnits="userSpaceOnUse"><stop offset="0" stop-color="#ff0"/><stop offset="1" stop-color="#07aba0"/></linearGradient><clipPath id="clip-path-3"><path class="cls-10" d="M13,67A41,41,0,0,1,54,26H82.13a26,26,0,0,0,26-26h-54a54.06,54.06,0,1,0,0,108.11v-.06A41,41,0,0,1,13,67"/></clipPath><linearGradient id="linear-gradient-12" x1="13.92" y1="94.67" x2="122.91" y2="-15.64" gradientUnits="userSpaceOnUse"><stop offset="0" stop-color="#ed376a"/><stop offset="1" stop-color="#ff0"/></linearGradient><mask id="mask" x="0" y="0" width="108.11" height="108.11" maskUnits="userSpaceOnUse"><rect class="cls-1" width="108.11" height="108.11"/></mask><clipPath id="clip-path-4"><path class="cls-10" d="M54.06,82.13A28.08,28.08,0,0,1,54,26a41,41,0,0,0,.11,82.07v.06h54.05a26,26,0,0,0-26-26Z"/></clipPath><linearGradient id="linear-gradient-13" x1="23.08" y1="49.12" x2="115.12" y2="93.15" gradientUnits="userSpaceOnUse"><stop offset="0" stop-color="#ed376a"/><stop offset="1" stop-color="#c835f8"/></linearGradient><mask id="mask-2" x="54.14" y="0" width="53.97" height="21.28" maskUnits="userSpaceOnUse"><rect class="cls-2" x="54.14" width="53.97" height="21.28"/></mask><mask id="mask-3" x="54.14" y="86.83" width="53.97" height="21.28" maskUnits="userSpaceOnUse"><rect class="cls-3" x="54.14" y="86.83" width="53.97" height="21.28"/></mask><mask id="mask-4" x="13.02" y="25.98" width="42.42" height="82.13" maskUnits="userSpaceOnUse"><rect class="cls-4" x="13.02" y="25.98" width="42.42" height="82.13"/></mask><mask id="mask-5" x="54.17" y="21.28" width="46.42" height="9.87" maskUnits="userSpaceOnUse"><rect class="cls-5" x="54.17" y="21.28" width="46.42" height="9.87"/></mask><mask id="mask-6" x="11.86" y="0" width="96.25" height="106.73" maskUnits="userSpaceOnUse"><rect class="cls-6" x="11.86" width="96.25" height="106.73"/></mask><mask id="mask-7" x="24.82" y="26.48" width="83.29" height="81.63" maskUnits="userSpaceOnUse"><rect class="cls-7" x="24.82" y="26.48" width="83.29" height="81.63"/></mask><clipPath id="clip-path-5"><path class="cls-10" d="M108.11,108.11h-54A54.06,54.06,0,1,1,54.06,0a47.56,47.56,0,0,0,0,95.12H95.12a13,13,0,0,1,13,13"/></clipPath><linearGradient id="linear-gradient-14" x1="91.25" y1="54.05" x2="17.2" y2="54.05" gradientUnits="userSpaceOnUse"><stop offset="0" stop-color="#5e17a9"/><stop offset="1" stop-color="#c40015"/></linearGradient><mask id="mask-9" x="54.17" y="76.96" width="46.42" height="9.87" maskUnits="userSpaceOnUse"><rect class="cls-9" x="54.17" y="76.96" width="46.42" height="9.87"/></mask></defs><g id="Ebene_2" data-name="Ebene 2"><g id="Layer_1" data-name="Layer 1"><g class="cls-11"><rect class="cls-12" x="54.17" y="64.16" width="51.52" height="22.67"/></g><g class="cls-13"><rect class="cls-14" x="54.17" y="21.28" width="51.53" height="22.83"/></g><g class="cls-15"><rect class="cls-16" width="108.11" height="108.11"/></g><g class="cls-17"><path class="cls-18" d="M108.11,0h-54a54.06,54.06,0,1,0,0,108.11,47.56,47.56,0,0,1,0-95.12H95.12a13,13,0,0,0,13-13"/></g><g class="cls-19"><rect class="cls-20" x="13.02" y="25.98" width="95.09" height="82.13"/></g><g class="cls-21"><path class="cls-22" d="M54.14,0A54,54,0,0,1,97,21.28,26,26,0,0,0,108.11,0Z"/></g><g class="cls-23"><path class="cls-24" d="M97,86.83a54,54,0,0,1-42.9,21.28h54A26,26,0,0,0,97,86.83"/></g><g class="cls-25"><path class="cls-26" d="M18.12,69.63a38.25,38.25,0,0,1,9.63-25.39A28.08,28.08,0,0,1,54,26a41,41,0,0,0,.11,82.07v.06h.08l1.3,0A38.58,38.58,0,0,1,18.12,69.63"/></g><g class="cls-27"><path class="cls-28" d="M70.29,31.15h14a31,31,0,0,0,16.31-4.61A55,55,0,0,0,97,21.28,25.87,25.87,0,0,1,82.13,26h-28a28,28,0,0,1,16.12,5.17"/></g><g class="cls-29"><path class="cls-30" d="M54,24.82A42.2,42.2,0,0,0,11.86,67c0,11.78,6.09,33.85,31.82,39.71A41,41,0,0,1,54,26H82.13A25.87,25.87,0,0,0,97,21.28,26,26,0,0,0,108.11,0c-.38,8.14-5.13,15.7-11.84,20.29a25.23,25.23,0,0,1-14.14,4.53H54"/></g><g class="cls-31"><path class="cls-32" d="M54.06,82.13a28.08,28.08,0,0,1-5.29-55.65c-18.85,3.13-24,19.55-24,27.58A29.24,29.24,0,0,0,54.06,83.29H82.13c13.32,0,25.15,11.1,26,24.82a26,26,0,0,0-26-26Z"/></g><g class="cls-33"><g class="cls-17"><rect class="cls-34" width="108.11" height="108.11"/></g></g><g class="cls-35"><path class="cls-36" d="M70.29,77h14a31,31,0,0,1,16.31,4.61A55,55,0,0,1,97,86.83a25.87,25.87,0,0,0-14.91-4.7h-28A28,28,0,0,0,70.29,77"/></g></g></g></svg>